<?xml version="1.0" encoding="utf-8"?>
<!-- Svg Vector Icons : http://www.onlinewebfonts.com/icon -->
<!DOCTYPE svg PUBLIC "-//W3C//DTD SVG 1.1//EN" "http://www.w3.org/Graphics/SVG/1.1/DTD/svg11.dtd">
<svg fill="#fff" version="1.1" xmlns="http://www.w3.org/2000/svg" xmlns:xlink="http://www.w3.org/1999/xlink" x="0px" y="0px" viewBox="0 0 1000 1000" enable-background="new 0 0 1000 1000" xml:space="preserve">
<metadata> Svg Vector Icons : http://www.onlinewebfonts.com/icon </metadata>
<g><g transform="translate(0.000000,511.000000) scale(0.100000,-0.100000)"><path d="M4560.3,4570.3v-439.7H5000h439.7v439.7V5010H5000h-439.7V4570.3z"/><path d="M1523.9,3575.6L1220.3,3272l309.9-309.9l307.8-307.8l307.8,307.8l309.9,309.9l-303.6,303.6c-167.5,167.5-307.8,303.6-314.1,303.6C1831.8,3879.2,1691.5,3743.1,1523.9,3575.6z"/><path d="M7847.9,3575.6L7544.2,3272l309.9-309.9l307.8-307.8l307.8,307.8l309.9,309.9l-303.6,303.6c-167.5,167.5-307.8,303.6-314.1,303.6S8015.4,3743.1,7847.9,3575.6z"/><path d="M1879.9,713.1c0-1329.7,2.1-1352.7,148.7-1650.1c259.7-523.5,873.2-822.9,1442.8-703.6c500.5,104.7,921.4,510.9,1034.4,996.7c27.2,113.1,33.5,333,33.5,1336v1197.8h-439.7h-439.7V723.5c0-1088.9-4.2-1174.7-39.8-1252.2c-67-146.6-238.7-261.8-391.6-261.8c-196.8,0-391.6,134-443.9,305.7c-18.9,64.9-25.1,385.3-25.1,1231.3v1143.3h-439.7h-439.7V713.1z"/><path d="M5460.7,1881.5c0-6.3,111-464.9,249.2-1021.9c136.1-557,332.9-1352.7,433.4-1769.4l186.4-760.1h446c242.9,0,443.9,2.1,443.9,6.3c0,2.1,201,802,448.1,1779.9l448.1,1773.6l-452.3-4.2l-452.3-6.3l-209.4-862.7c-117.3-473.2-217.8-856.5-224-852.3c-8.4,4.2-111,393.7-228.3,866.9L6336,1889.9h-437.6C5657.5,1889.9,5460.7,1885.7,5460.7,1881.5z"/><path d="M100,110v-439.7h439.7h439.7V110v439.7H539.7H100V110z"/><path d="M9020.5,110v-439.7h439.7H9900V110v439.7h-439.7h-439.7V110z"/><path d="M1523.9-2748.3L1220.3-3052l309.9-309.9l307.8-307.8l307.8,307.8l309.9,309.9l-303.6,303.6c-167.5,167.5-307.8,303.6-314.1,303.6C1831.8-2444.7,1691.5-2580.8,1523.9-2748.3z"/><path d="M7847.9-2748.3L7544.2-3052l309.9-309.9l307.8-307.8l307.8,307.8l309.9,309.9l-303.6,303.6c-167.5,167.5-307.8,303.6-314.1,303.6S8015.4-2580.8,7847.9-2748.3z"/><path d="M4560.3-4350.3V-4790H5000h439.7v439.7v439.7H5000h-439.7V-4350.3z"/></g></g>
</svg>